<svg width="16" height="16" viewBox="0 0 16 16" fill="none" xmlns="http://www.w3.org/2000/svg">
<g clip-path="url(#clip0_306_28698)">
<g clip-path="url(#clip1_306_28698)">
<path d="M8 3C5.12 3 2.48 5.37388 1.39 6.77756C1.16 7.09752 1 7.45876 1 7.82C1 8.18124 1.16 8.5012 1.39 8.86244C2.48 10.2661 5.12 12.64 8 12.64C10.88 12.64 13.52 10.2764 14.61 8.86244C14.84 8.54248 15 8.18124 15 7.82C15 7.45876 14.84 7.1388 14.61 6.77756C13.52 5.37388 10.88 3 8 3V3Z" stroke="#010101" stroke-miterlimit="10"/>
<path d="M7.99988 9.74978C9.03266 9.74978 9.86988 8.88566 9.86988 7.81971C9.86988 6.75377 9.03266 5.88965 7.99988 5.88965C6.96711 5.88965 6.12988 6.75377 6.12988 7.81971C6.12988 8.88566 6.96711 9.74978 7.99988 9.74978Z" stroke="#010101" stroke-miterlimit="10"/>
<path d="M3 13.1267L13.1173 3" stroke="#010101" stroke-miterlimit="10"/>
</g>
</g>
<defs>
<clipPath id="clip0_306_28698">
<rect width="16" height="16" fill="white"/>
</clipPath>
<clipPath id="clip1_306_28698">
<rect width="16" height="12" fill="white" transform="translate(0 2)"/>
</clipPath>
</defs>
</svg>
