<svg width="16" height="16" viewBox="0 0 16 16" fill="none" xmlns="http://www.w3.org/2000/svg">
<g clip-path="url(#clip0_306_28565)">
<g clip-path="url(#clip1_306_28565)">
<path d="M7.99989 3.4668C5.31189 3.4668 2.84789 5.60413 1.83055 6.8828C1.61589 7.17213 1.46655 7.4988 1.46655 7.82546C1.46655 8.15213 1.61589 8.44146 1.83055 8.76813C2.84789 10.0375 5.31189 12.1841 7.99989 12.1841C10.6879 12.1841 13.1519 10.0468 14.1692 8.76813C14.3839 8.4788 14.5332 8.15213 14.5332 7.82546C14.5332 7.4988 14.3839 7.20946 14.1692 6.8828C13.1519 5.61346 10.6879 3.4668 7.99989 3.4668V3.4668Z" stroke="#010101" stroke-miterlimit="10"/>
<path d="M7.99997 9.57074C8.96389 9.57074 9.74531 8.78933 9.74531 7.82541C9.74531 6.86149 8.96389 6.08008 7.99997 6.08008C7.03605 6.08008 6.25464 6.86149 6.25464 7.82541C6.25464 8.78933 7.03605 9.57074 7.99997 9.57074Z" stroke="#010101" stroke-miterlimit="10"/>
</g>
</g>
<defs>
<clipPath id="clip0_306_28565">
<rect width="16" height="16" fill="white"/>
</clipPath>
<clipPath id="clip1_306_28565">
<rect width="14" height="9.64133" fill="white" transform="translate(1 3)"/>
</clipPath>
</defs>
</svg>
