<svg width="32" height="32" viewBox="0 0 32 32" fill="none" xmlns="http://www.w3.org/2000/svg">
<circle cx="16" cy="16" r="15.75" stroke="#444444" stroke-width="0.5"/>
<path d="M23.4558 12.921C23.4474 12.2899 23.3293 11.665 23.1067 11.0744C22.9136 10.5762 22.6188 10.1237 22.241 9.7459C21.8632 9.36809 21.4107 9.07325 20.9125 8.88021C20.3294 8.66134 19.7135 8.54299 19.0908 8.53021C18.2892 8.49438 18.035 8.48438 16 8.48438C13.965 8.48438 13.7042 8.48438 12.9083 8.53021C12.286 8.54309 11.6703 8.66143 11.0875 8.88021C10.5892 9.07312 10.1367 9.36791 9.75886 9.74574C9.38103 10.1236 9.08624 10.5761 8.89333 11.0744C8.67402 11.657 8.55593 12.2728 8.54416 12.8952C8.50833 13.6977 8.4975 13.9519 8.4975 15.9869C8.4975 18.0219 8.4975 18.2819 8.54416 19.0785C8.55666 19.7019 8.67416 20.3169 8.89333 20.901C9.08656 21.3992 9.38158 21.8515 9.75953 22.2292C10.1375 22.6068 10.5901 22.9015 11.0883 23.0944C11.6695 23.322 12.2853 23.4489 12.9092 23.4694C13.7117 23.5052 13.9658 23.516 16.0008 23.516C18.0358 23.516 18.2967 23.516 19.0925 23.4694C19.7151 23.4571 20.3311 23.339 20.9142 23.1202C21.4122 22.9269 21.8646 22.632 22.2424 22.2542C22.6201 21.8765 22.9151 21.4241 23.1083 20.926C23.3275 20.3427 23.445 19.7277 23.4575 19.1035C23.4933 18.3019 23.5042 18.0477 23.5042 16.0119C23.5025 13.9769 23.5025 13.7185 23.4558 12.921ZM15.995 19.8352C13.8667 19.8352 12.1425 18.111 12.1425 15.9827C12.1425 13.8544 13.8667 12.1302 15.995 12.1302C17.0167 12.1302 17.9966 12.5361 18.7191 13.2586C19.4416 13.9811 19.8475 14.961 19.8475 15.9827C19.8475 17.0045 19.4416 17.9844 18.7191 18.7068C17.9966 19.4293 17.0167 19.8352 15.995 19.8352ZM20.0008 12.886C19.8828 12.8862 19.766 12.863 19.6569 12.8179C19.5479 12.7728 19.4488 12.7066 19.3654 12.6232C19.2819 12.5397 19.2158 12.4407 19.1707 12.3316C19.1255 12.2226 19.1024 12.1057 19.1025 11.9877C19.1025 11.8698 19.1257 11.753 19.1708 11.6441C19.216 11.5352 19.2821 11.4362 19.3655 11.3528C19.4489 11.2694 19.5479 11.2033 19.6568 11.1581C19.7657 11.113 19.8825 11.0898 20.0004 11.0898C20.1183 11.0898 20.2351 11.113 20.344 11.1581C20.453 11.2033 20.552 11.2694 20.6353 11.3528C20.7187 11.4362 20.7849 11.5352 20.83 11.6441C20.8751 11.753 20.8983 11.8698 20.8983 11.9877C20.8983 12.4844 20.4967 12.886 20.0008 12.886Z" fill="white"/>
<path d="M15.995 18.4855C17.3771 18.4855 18.4975 17.3651 18.4975 15.983C18.4975 14.6009 17.3771 13.4805 15.995 13.4805C14.6129 13.4805 13.4925 14.6009 13.4925 15.983C13.4925 17.3651 14.6129 18.4855 15.995 18.4855Z" fill="white"/>
</svg>
