<svg width="32" height="32" viewBox="0 0 32 32" fill="none" xmlns="http://www.w3.org/2000/svg">
<circle cx="16" cy="16" r="15.75" stroke="#444444" stroke-width="0.5"/>
<g clip-path="url(#clip0_1263_63888)">
<path d="M23.08 15.0396L11.47 9.23457C11.3133 9.162 11.1411 9.12976 10.9688 9.14078C10.7965 9.15181 10.6298 9.20574 10.4837 9.29767C10.3376 9.38961 10.2168 9.51662 10.1323 9.66716C10.0478 9.81769 10.0023 9.98697 9.99997 10.1596V21.7646C9.99851 21.9417 10.0428 22.1163 10.1285 22.2714C10.2142 22.4264 10.3385 22.5568 10.4893 22.6498C10.6401 22.7428 10.8124 22.7953 10.9894 22.8023C11.1665 22.8092 11.3423 22.7704 11.5 22.6896L23.08 16.8846C23.2515 16.7985 23.3957 16.6664 23.4965 16.503C23.5973 16.3397 23.6506 16.1515 23.6506 15.9596C23.6506 15.7676 23.5973 15.5795 23.4965 15.4161C23.3957 15.2528 23.2515 15.1207 23.08 15.0346V15.0396Z" fill="white"/>
</g>
<defs>
<clipPath id="clip0_1263_63888">
<rect width="18" height="18" fill="white" transform="translate(7 7)"/>
</clipPath>
</defs>
</svg>
