<svg width="32" height="32" viewBox="0 0 32 32" fill="none" xmlns="http://www.w3.org/2000/svg">
<circle cx="16" cy="16" r="15.75" stroke="#444444" stroke-width="0.5"/>
<path d="M20.5833 8.20789C20.5833 8.08634 20.535 7.96976 20.4491 7.8838C20.3631 7.79785 20.2466 7.74956 20.125 7.74956H17.8333C16.6794 7.69208 15.5495 8.09367 14.6907 8.86659C13.8319 9.63951 13.314 10.7209 13.25 11.8746V14.3496H10.9583C10.8368 14.3496 10.7202 14.3978 10.6342 14.4838C10.5483 14.5698 10.5 14.6863 10.5 14.8079V17.1912C10.5 17.3128 10.5483 17.4294 10.6342 17.5153C10.7202 17.6013 10.8368 17.6496 10.9583 17.6496H13.25V23.7912C13.25 23.9128 13.2983 24.0294 13.3842 24.1153C13.4702 24.2013 13.5868 24.2496 13.7083 24.2496H16.4583C16.5799 24.2496 16.6965 24.2013 16.7824 24.1153C16.8684 24.0294 16.9167 23.9128 16.9167 23.7912V17.6496H19.3183C19.4203 17.651 19.5198 17.6185 19.6011 17.557C19.6825 17.4956 19.741 17.4088 19.7675 17.3104L20.4275 14.9271C20.4457 14.8593 20.4482 14.7883 20.4347 14.7195C20.4211 14.6507 20.392 14.5859 20.3495 14.5301C20.307 14.4743 20.2523 14.429 20.1895 14.3977C20.1267 14.3664 20.0576 14.35 19.9875 14.3496H16.9167V11.8746C16.9395 11.6477 17.046 11.4374 17.2155 11.2849C17.385 11.1323 17.6053 11.0484 17.8333 11.0496H20.125C20.2466 11.0496 20.3631 11.0013 20.4491 10.9153C20.535 10.8294 20.5833 10.7128 20.5833 10.5912V8.20789Z" fill="white"/>
</svg>
